<svg width="126.02mm" height="126.02mm" version="1.1" viewBox="0 0 126.02 126.02" xmlns="http://www.w3.org/2000/svg">
 <defs>
  <filter id="filter1200" color-interpolation-filters="sRGB">
   <feFlood flood-color="rgb(0,0,0)" flood-opacity=".49804" result="flood"/>
   <feComposite in="flood" in2="SourceGraphic" operator="in" result="composite1"/>
   <feGaussianBlur in="composite1" result="blur" stdDeviation="1"/>
   <feOffset dx="4" dy="4" result="offset"/>
   <feComposite in="SourceGraphic" in2="offset" result="composite2"/>
  </filter>
 </defs>
 <g transform="translate(-41.313 -74.575)">
  <rect x="41.577" y="74.839" width="125.49" height="125.49" rx="12.851" ry="14.906" fill="#253855" opacity=".99483"/>
  <path transform="matrix(.78231 .90006 -.90006 .78231 151.62 -78.452)" d="m89.921 101.03v78.234l14.644 15.647 14.644-15.647v-78.547z" fill="#f5f5f5" filter="url(#filter1200)"/>
  <rect transform="matrix(.82435 0 0 .82435 30.469 36.427)" x="109.07" y="141.6" width="49.708" height="49.708" rx="15.59" ry="18.083" fill="#f5f5f5" opacity=".99483"/>
  <g transform="matrix(3.487 0 0 3.487 -80.764 -276.9)" fill="#253855" aria-label="M">
   <path d="m66.986 133.05h-1.0232v-6.6301l-2.1394 4.5113h-0.60978l-2.1239-4.5113v6.6301h-0.95601v-7.6946h1.3953l2.0515 4.284 1.9844-4.284h1.4211z" fill="#253855" stroke-width=".26458"/>
  </g>
  <path d="m150.92 189.72-1.6703-2.6615 1.8701-0.94764 1.6978 0.94764-1.8976 2.6615" fill="#253855"/>
 </g>
</svg>
